<svg width="1340" height="580" viewBox="0 0 1340 580" fill="none" xmlns="http://www.w3.org/2000/svg">
<rect width="1340" height="528" rx="92" fill="#3E94E3" fill-opacity="0.17"/>
<rect x="727" y="162" width="612.664" height="417.432" rx="14" fill="white"/>
<rect x="942" y="290" width="398" height="49" fill="white"/>
<path fill-rule="evenodd" clip-rule="evenodd" d="M697.125 102C674.481 102 656.125 120.356 656.125 143V210.97C656.125 217.156 650.566 221.858 644.467 220.832L574.68 209.097C566.582 207.735 560.385 216.175 564.11 223.494L716.462 522.836C719.802 529.399 728.85 530.223 733.321 524.371L839.371 385.573C841.263 383.097 844.201 381.645 847.317 381.645H1299C1321.64 381.645 1340 363.288 1340 340.645V143C1340 120.356 1321.64 102 1299 102H697.125Z" fill="#DFEDFB"/>
</svg>
