<svg width="1348" height="580" viewBox="0 0 1348 580" fill="none" xmlns="http://www.w3.org/2000/svg">
<rect width="1340" height="528" rx="92" fill="#F0FBFE"/>
<rect x="735" y="162" width="612.664" height="417.432" rx="14" fill="white"/>
<rect x="950" y="290" width="398" height="49" fill="white"/>
<path fill-rule="evenodd" clip-rule="evenodd" d="M705.125 102C682.481 102 664.125 120.356 664.125 143V210.97C664.125 217.156 658.566 221.858 652.467 220.832L582.68 209.097C574.582 207.735 568.385 216.175 572.11 223.494L724.462 522.836C727.802 529.399 736.85 530.223 741.32 524.371L847.371 385.573C849.263 383.097 852.201 381.645 855.317 381.645H1307C1329.64 381.645 1348 363.288 1348 340.645V143C1348 120.356 1329.64 102 1307 102H705.125Z" fill="#F0FBFE"/>
</svg>
